<svg xmlns="http://www.w3.org/2000/svg" viewBox="0 0 64 64">
  <defs>
    <linearGradient id="bodyGrad" x1="0%" y1="0%" x2="100%" y2="100%">
      <stop offset="0%" style="stop-color:#667eea"/>
      <stop offset="100%" style="stop-color:#764ba2"/>
    </linearGradient>
    <linearGradient id="wingGrad" x1="0%" y1="0%" x2="100%" y2="100%">
      <stop offset="0%" style="stop-color:#48bb78"/>
      <stop offset="100%" style="stop-color:#38a169"/>
    </linearGradient>
  </defs>

  <!-- Background circle -->
  <circle cx="32" cy="32" r="30" fill="url(#bodyGrad)"/>

  <!-- Bird body -->
  <ellipse cx="32" cy="34" rx="16" ry="14" fill="#fff"/>

  <!-- Bird wing -->
  <path d="M24 30 Q16 26 12 34 Q18 32 24 36 Z" fill="url(#wingGrad)"/>

  <!-- Bird head -->
  <circle cx="40" cy="24" r="10" fill="#fff"/>

  <!-- Bird eye -->
  <circle cx="43" cy="22" r="3" fill="#2d3748"/>
  <circle cx="44" cy="21" r="1" fill="#fff"/>

  <!-- Bird beak -->
  <path d="M50 24 L56 26 L50 28 Z" fill="#f6ad55"/>

  <!-- Bird tail -->
  <path d="M16 38 Q8 42 6 50 Q14 46 20 40 Z" fill="url(#wingGrad)"/>

  <!-- Small sparkle -->
  <path d="M52 14 L54 10 L56 14 L60 16 L56 18 L54 22 L52 18 L48 16 Z" fill="#ffd700"/>
</svg>
